<?xml version="1.0" encoding="UTF-8" standalone="no"?>
<!-- Created with Inkscape (http://www.inkscape.org/) -->

<svg
   xmlns:dc="http://purl.org/dc/elements/1.1/"
   xmlns:cc="http://creativecommons.org/ns#"
   xmlns:rdf="http://www.w3.org/1999/02/22-rdf-syntax-ns#"
   xmlns:svg="http://www.w3.org/2000/svg"
   xmlns="http://www.w3.org/2000/svg"
   xmlns:sodipodi="http://sodipodi.sourceforge.net/DTD/sodipodi-0.dtd"
   xmlns:inkscape="http://www.inkscape.org/namespaces/inkscape"
   width="133.85913mm"
   height="87.323441mm"
   viewBox="0 0 474.304 309.41378"
   id="svg2"
   version="1.1"
   inkscape:version="0.91 r13725"
   sodipodi:docname="logo.svg"
   inkscape:export-filename="/Users/laura/Desktop/m_list_logo/img/logo.png"
   inkscape:export-xdpi="186.37236"
   inkscape:export-ydpi="186.37236">
  <defs
     id="defs4" />
  <sodipodi:namedview
     id="base"
     pagecolor="#ffffff"
     bordercolor="#666666"
     borderopacity="1.0"
     inkscape:pageopacity="0.0"
     inkscape:pageshadow="2"
     inkscape:zoom="2.8284271"
     inkscape:cx="230.96572"
     inkscape:cy="165.81252"
     inkscape:document-units="px"
     inkscape:current-layer="layer1"
     showgrid="false"
     inkscape:window-width="1867"
     inkscape:window-height="1035"
     inkscape:window-x="53"
     inkscape:window-y="0"
     inkscape:window-maximized="1"
     fit-margin-top="5"
     fit-margin-left="15"
     fit-margin-bottom="5"
     fit-margin-right="15" />
  <metadata
     id="metadata7">
    <rdf:RDF>
      <cc:Work
         rdf:about="">
        <dc:format>image/svg+xml</dc:format>
        <dc:type
           rdf:resource="http://purl.org/dc/dcmitype/StillImage" />
        <dc:title></dc:title>
      </cc:Work>
    </rdf:RDF>
  </metadata>
  <g
     inkscape:label="Layer 1"
     inkscape:groupmode="layer"
     id="layer1"
     transform="translate(-33.65787,66.863775)">
    <path
       style="fill:none;fill-rule:evenodd;stroke:#e2e5e3;stroke-width:12.2448473;stroke-linecap:round;stroke-linejoin:miter;stroke-miterlimit:4;stroke-dasharray:none;stroke-opacity:1"
       d="m 406.85552,42.002656 c 8.53762,-0.823935 21.58044,28.452903 29.99414,29.160077"
       id="path4245"
       inkscape:connector-curvature="0"
       sodipodi:nodetypes="cc" />
    <path
       inkscape:connector-curvature="0"
       id="path4239"
       d="m 230.81069,88.366054 c 8.53762,-0.823937 7.9701,-1.475749 16.38382,-0.768571"
       style="fill:none;fill-rule:evenodd;stroke:#e2e5e3;stroke-width:12.2448473;stroke-linecap:round;stroke-linejoin:miter;stroke-miterlimit:4;stroke-dasharray:none;stroke-opacity:1"
       sodipodi:nodetypes="cc" />
    <path
       style="fill:none;fill-rule:evenodd;stroke:#e2e5e3;stroke-width:12.2448473;stroke-linecap:round;stroke-linejoin:miter;stroke-miterlimit:4;stroke-dasharray:none;stroke-opacity:1"
       d="m 316.43363,197.95044 c 8.53762,-0.82394 16.73352,0.82999 25.14724,1.53716"
       id="path4241"
       inkscape:connector-curvature="0" />
    <path
       inkscape:connector-curvature="0"
       id="path4243"
       d="m 316.43363,197.95044 c 8.53762,-0.82394 16.73352,0.82999 25.14724,1.53716"
       style="fill:none;fill-rule:evenodd;stroke:#e2e5e3;stroke-width:12.2448473;stroke-linecap:round;stroke-linejoin:miter;stroke-miterlimit:4;stroke-dasharray:none;stroke-opacity:1" />
    <path
       inkscape:connector-curvature="0"
       id="path4237"
       d="m 167.83617,218.70214 c 8.53762,-0.82393 7.9701,-11.08303 16.38382,-10.37585"
       style="fill:none;fill-rule:evenodd;stroke:#e2e5e3;stroke-width:12.2448473;stroke-linecap:round;stroke-linejoin:miter;stroke-miterlimit:4;stroke-dasharray:none;stroke-opacity:1"
       sodipodi:nodetypes="cc" />
    <path
       style="fill:none;fill-rule:evenodd;stroke:#e2e5e3;stroke-width:12.2448473;stroke-linecap:round;stroke-linejoin:miter;stroke-miterlimit:4;stroke-dasharray:none;stroke-opacity:1"
       d="m 126.68613,204.09909 c 8.53762,-0.82395 16.73354,0.82999 25.14725,1.53717"
       id="path4235"
       inkscape:connector-curvature="0" />
    <path
       style="fill:none;fill-rule:evenodd;stroke:#eae03e;stroke-width:7.22317791;stroke-linecap:round;stroke-linejoin:miter;stroke-miterlimit:4;stroke-dasharray:none;stroke-opacity:1"
       d="m 432.74571,146.2202 c 0.23964,-7.85202 2.63593,-2.93478 9.15434,-4.10358"
       id="path4296"
       inkscape:connector-curvature="0"
       sodipodi:nodetypes="cc" />
    <path
       style="fill:none;fill-rule:evenodd;stroke:#007621;stroke-width:8.6678133;stroke-linecap:round;stroke-linejoin:miter;stroke-miterlimit:4;stroke-dasharray:none;stroke-opacity:1"
       d="m 420.92138,145.53627 c 3.88779,-3.4746 7.82232,-6.94674 10.29862,-10.94286"
       id="path4294"
       inkscape:connector-curvature="0" />
    <path
       style="fill:none;fill-rule:evenodd;stroke:#00e000;stroke-width:8.6678133;stroke-linecap:round;stroke-linejoin:miter;stroke-miterlimit:4;stroke-dasharray:none;stroke-opacity:1"
       d="m 404.90127,135.27733 c 9.7562,0.11736 11.38992,3.80915 18.69011,-2.73571 3.90333,-3.49947 -18.14713,2.64323 -16.40152,-2.05179 1.53276,-4.12249 10.55392,-4.90836 14.11294,-5.47145"
       id="path4292"
       inkscape:connector-curvature="0"
       sodipodi:nodetypes="cssc" />
    <path
       style="fill:none;fill-rule:evenodd;stroke:#00e0f4;stroke-width:11.55708313;stroke-linecap:round;stroke-linejoin:miter;stroke-miterlimit:4;stroke-dasharray:none;stroke-opacity:1"
       d="m 387.73693,123.30858 c 4.57716,0 9.15432,0 13.73148,0 33.89858,0 -40.09341,-6.83929 1.90715,-6.83929 5.95598,0 14.45822,-0.68394 19.07153,-0.68394 4.9078,0 -17.58327,-0.65035 -14.11292,-3.76161 5.03135,-4.51079 21.26859,-3.09593 28.22586,-1.70981"
       id="path4290"
       inkscape:connector-curvature="0" />
    <path
       style="fill:none;fill-rule:evenodd;stroke:#48aa55;stroke-width:11.55708313;stroke-linecap:round;stroke-linejoin:miter;stroke-miterlimit:4;stroke-dasharray:none;stroke-opacity:1"
       d="m 386.97406,105.86837 c 4.57717,0 9.15434,0 13.73148,0 32.16342,0 -29.64131,-10.258921 -1.90715,-10.258921 2.65234,0 23.79908,2.124141 24.79299,0.341952 3.51619,-6.304721 -21.72007,-9.813685 -5.72147,-17.782157"
       id="path4288"
       inkscape:connector-curvature="0" />
    <path
       style="fill:none;fill-rule:evenodd;stroke:#b2ddb5;stroke-width:11.55708313;stroke-linecap:round;stroke-linejoin:miter;stroke-miterlimit:4;stroke-dasharray:none;stroke-opacity:1"
       d="m 369.27111,86.008537 c 7.03356,-2.295486 28.18403,5.50891 33.56587,0.683925 4.10227,-3.677814 -24.79297,-5.551806 -24.79297,-10.94287 0,-4.870763 13.7623,-2.735704 17.16437,-2.735704 20.87793,0 -24.96648,-30.293296 8.39145,-13.678589"
       id="path4286"
       inkscape:connector-curvature="0"
       sodipodi:nodetypes="csssc" />
    <path
       style="fill:none;fill-rule:evenodd;stroke:#00d191;stroke-width:11.55708313;stroke-linecap:round;stroke-linejoin:miter;stroke-miterlimit:4;stroke-dasharray:none;stroke-opacity:1"
       d="M 376.77111,80.459426 C 373.44734,73.549785 365.28954,70.87329 359.60674,66.096907 355.1197,62.325569 333.66945,41.751724 333.66945,59.25762 c 0,2.910804 20.79851,3.550233 23.26727,4.103566 3.40636,0.76348 29.94665,8.8833 32.04016,5.12947 5.48845,-9.841168 -43.39997,-12.459742 -32.80303,-31.46074"
       id="path4284"
       inkscape:connector-curvature="0" />
    <path
       style="fill:none;fill-rule:evenodd;stroke:#14d4fa;stroke-width:11.55708313;stroke-linecap:round;stroke-linejoin:miter;stroke-miterlimit:4;stroke-dasharray:none;stroke-opacity:1"
       d="m 365.32818,105.08086 c -10.25305,-8.4391 -23.69148,-17.364285 -37.76162,-20.517869 -2.74468,-0.615176 -13.77581,-7.976571 -14.11293,-7.523216 -1.40452,1.88879 -3.05005,4.101075 -4.19573,6.155374 -0.59575,1.06821 14.44375,-0.792885 16.78294,-1.025905 19.09956,-1.902594 32.83772,-0.310876 45.77167,11.284838 7.41933,6.651668 -53.32175,-12.79355 -48.4417,-21.543778 4.24467,-7.610941 29.46871,0.08838 34.32877,4.445541"
       id="path4282"
       inkscape:connector-curvature="0" />
    <path
       style="fill:none;fill-rule:evenodd;stroke:#007bd6;stroke-width:11.55708313;stroke-linecap:round;stroke-linejoin:miter;stroke-miterlimit:4;stroke-dasharray:none;stroke-opacity:1"
       d="m 306.20645,111.92016 c 16.73697,-1.34163 32.34372,3.73833 47.29738,8.20716 1.40967,0.42125 8.10705,8.03325 8.39149,7.52322 10.31577,-18.49687 -49.958,-10.92599 -56.45172,-22.56968 -1.51896,-2.72358 43.47706,4.10628 49.58596,1.36786 8.24007,-3.69373 -29.96646,-22.310652 -54.16313,-10.258929"
       id="path4256"
       inkscape:connector-curvature="0" />
    <path
       style="fill:none;fill-rule:evenodd;stroke:#24e06e;stroke-width:11.55708313;stroke-linecap:round;stroke-linejoin:miter;stroke-miterlimit:4;stroke-dasharray:none;stroke-opacity:1"
       d="m 323.75225,158.42735 c 4.54817,0.0744 17.20612,2.15983 19.83474,2.15253 21.41798,-0.0595 -24.40949,-4.88397 -27.46335,-10.35968 -2.27882,-4.08608 35.5752,-2.55253 31.27731,-10.25895 -4.994,-8.95458 -41.10475,2.81619 -48.8231,-4.10356 -2.73067,-2.44813 50.62747,-3.85375 45.00879,-8.89109 -11.54879,-10.35386 -38.61989,-0.26599 -53.40026,-6.15536"
       id="path4254"
       inkscape:connector-curvature="0"
       sodipodi:nodetypes="csssssc" />
    <path
       style="fill:none;fill-rule:evenodd;stroke:#009580;stroke-width:11.55708313;stroke-linecap:round;stroke-linejoin:miter;stroke-miterlimit:4;stroke-dasharray:none;stroke-opacity:1"
       d="m 268.06341,189.59498 c 6.19144,-0.1807 12.32127,-0.48852 18.52661,-0.48852 54.83811,0 -30.57952,-4.12836 -3.8143,-7.32781 17.22622,-2.05919 35.98063,1.96947 32.69404,-0.97703 -1.82088,-1.63251 -48.89984,-3.05774 -48.49616,-3.41966 9.15023,-8.20349 39.13224,6.92949 50.67575,-3.41964 1.78984,-1.60464 -19.03468,-1.94309 -35.41854,-6.8393 -10.90481,-3.25884 43.89292,2.78527 34.32875,-2.93113 -4.53079,-2.70799 -12.34035,-1.61183 -17.43682,-2.4426 -64.19182,-10.46364 13.71897,-7.98928 15.80215,-11.72449 2.15359,-3.86157 -73.54452,-10.74747 -17.43684,-10.74747"
       id="path4252"
       inkscape:connector-curvature="0" />
    <path
       style="fill:none;fill-rule:evenodd;stroke:#00cb00;stroke-width:11.55708313;stroke-linecap:round;stroke-linejoin:miter;stroke-miterlimit:4;stroke-dasharray:none;stroke-opacity:1"
       d="m 221.14944,202.13314 c 61.3347,4.50976 -3.8046,-2.18991 13.87092,-8.98134 13.41633,-5.15492 16.87454,-5.47045 20.66613,-6.15307 7.86383,-1.41577 18.05813,-24.03142 5.09041,-13.92345 -25.75654,20.07652 0.94051,-9.57856 2.75589,-16.53973"
       id="path4250"
       inkscape:connector-curvature="0"
       sodipodi:nodetypes="csssc" />
    <path
       style="fill:none;fill-rule:evenodd;stroke:#00ccb1;stroke-width:11.55708313;stroke-linecap:round;stroke-linejoin:miter;stroke-miterlimit:4;stroke-dasharray:none;stroke-opacity:1"
       d="m 170.28945,186.93395 c 5.35622,-0.40253 59.33668,1.47293 59.33668,-1.38175 0,-0.22299 -88.32502,-8.29048 -40.84213,-8.29048 8.2198,0 16.43959,0 24.6594,0 6.84924,0 24.8795,0.49354 28.51241,-2.76349 3.87261,-3.4719 -83.59333,-3.81541 -73.20757,-13.12658 21.89342,-19.62814 82.38057,16.75989 66.27212,-19.34445"
       id="path4248"
       inkscape:connector-curvature="0" />
    <path
       style="fill:#eae03e;fill-opacity:1;fill-rule:evenodd;stroke:#eae03e;stroke-width:13.14112949;stroke-linecap:round;stroke-linejoin:miter;stroke-miterlimit:4;stroke-dasharray:none;stroke-opacity:1"
       d="m 181.46633,-31.010899 c 3.1638,5.542701 24.63916,2.742087 19.92371,-1.710149 -7.4201,-7.00593 -29.72222,-9.690849 -24.14996,-9.690849 12.37995,0 12.55192,4.065209 22.3387,-1.710152"
       id="path4246"
       inkscape:connector-curvature="0"
       sodipodi:nodetypes="cssc" />
    <path
       style="fill:#ffcc00;fill-rule:evenodd;stroke:#eae03e;stroke-width:13.14112949;stroke-linecap:round;stroke-linejoin:miter;stroke-miterlimit:4;stroke-dasharray:none;stroke-opacity:1"
       d="m 96.853686,-29.338676 c 5.001424,-50.911795 5.315574,36.9546459 20.065004,-14.108017"
       id="path4244"
       inkscape:connector-curvature="0" />
    <path
       style="fill:none;fill-rule:evenodd;stroke:#00c4f0;stroke-width:11.55708313;stroke-linecap:round;stroke-linejoin:miter;stroke-miterlimit:4;stroke-dasharray:none;stroke-opacity:1"
       d="m 152.81058,145.35818 c 23.80316,-2.28924 52.14724,1.53871 74.10648,-8.30488 5.58403,-2.50311 -74.10648,-2.85733 -74.10648,-12.21301 0,-1.51267 46.97319,-1.28064 49.58595,-1.46557 4.45276,-0.31517 27.35533,0.87814 31.05934,-2.4426 5.04669,-4.5245 -13.70776,-3.63034 -20.70622,-4.88521 -5.23826,-0.93924 -15.25721,-9.18597 -15.25721,-4.39669 0,1.75039 18.3858,-6.88071 19.07151,-7.32781"
       id="path4242"
       inkscape:connector-curvature="0" />
    <path
       style="fill:#338000;fill-rule:evenodd;stroke:#009500;stroke-width:17.3356266;stroke-linecap:round;stroke-linejoin:miter;stroke-miterlimit:4;stroke-dasharray:none;stroke-opacity:1"
       d="m 156.95073,114.36462 c -49.92144,-27.495174 -10.3337,-14.946734 0.006,-10.47846 12.52203,5.41109 29.61655,13.15695 12.81602,-10.695578 -1.54394,-2.76841 25.82245,11.063128 37.32974,7.803388 6.62182,-1.875805 -27.99658,-14.288224 -11.36147,-21.349044 19.18483,-8.143064 -9.50311,-1.964973 12.64888,-13.880941"
       id="path4240"
       inkscape:connector-curvature="0"
       sodipodi:nodetypes="cscssc" />
    <path
       style="fill:#55d400;fill-rule:evenodd;stroke:#9bc700;stroke-width:18.68011665;stroke-linecap:round;stroke-linejoin:miter;stroke-miterlimit:4;stroke-dasharray:none;stroke-opacity:1"
       d="m 172.86559,15.551934 c -60.54287,25.113167 66.872,-24.1009601 -48.3833,12.16373 -23.46151,8.179391 98.76243,3.766396 74.40457,9.122789 -8.22121,1.537212 -85.85268,-1.460834 -90.26131,2.660817 -4.44563,4.156237 12.4605,1.580374 18.70279,2.280689 25.4933,8.025342 108.84019,0.976851 43.50434,6.46199 -17.74118,1.951332 -41.11254,13.302324 -57.71022,13.302324 -6.86257,0 15.88157,-4.939764 22.74409,-4.939764 1.455,-0.104209 3.28523,-0.04789 5.38068,0.137943 17.98251,1.595965 55.49934,12.742026 43.04059,13.928773 -8.57403,0 -26.73362,12.446473 -38.97308,13.16817 -2.30269,0.135778 20.30264,-7.124207 16.98955,-8.768099 -5.40689,-2.682787 -26.30698,-1.466023 -28.85081,-1.941672"
       id="path4238"
       inkscape:connector-curvature="0"
       sodipodi:nodetypes="cccsccscscssc" />
    <path
       style="fill:none;fill-rule:evenodd;stroke:#000000;stroke-width:4.33390665;stroke-linecap:butt;stroke-linejoin:miter;stroke-miterlimit:4;stroke-dasharray:none;stroke-opacity:1"
       d="m 135.5438,84.809927 c -13.57195,28.596523 40.12429,41.663093 58.31694,28.216853 22.92189,-16.941603 22.31209,-36.06372 9.08806,-47.563722"
       id="path4144"
       inkscape:connector-curvature="0"
       sodipodi:nodetypes="csc" />
    <path
       style="fill:none;fill-rule:evenodd;stroke:#000000;stroke-width:4.33390665;stroke-linecap:butt;stroke-linejoin:miter;stroke-miterlimit:4;stroke-dasharray:none;stroke-opacity:1"
       d="m 152.95082,119.22841 c -19.9111,35.0166 36.32285,36.52682 58.56606,27.98036 23.06922,-8.86385 14.00288,-45.02126 -6.55015,-48.706544"
       id="path4146"
       inkscape:connector-curvature="0"
       sodipodi:nodetypes="csc" />
    <path
       style="fill:none;fill-rule:evenodd;stroke:#000000;stroke-width:4.33390665;stroke-linecap:butt;stroke-linejoin:miter;stroke-miterlimit:4;stroke-dasharray:none;stroke-opacity:1"
       d="m 172.98659,152.3903 c -28.70448,26.55384 19.24783,49.59148 47.39225,40.41607 38.36755,-12.50827 42.45552,-55.61528 1.15591,-55.61528"
       id="path4148"
       inkscape:connector-curvature="0"
       sodipodi:nodetypes="csc" />
    <path
       style="fill:none;fill-rule:evenodd;stroke:#000000;stroke-width:5.72521305;stroke-linecap:round;stroke-linejoin:miter;stroke-miterlimit:4;stroke-dasharray:none;stroke-opacity:1"
       d="m 187.83839,81.338952 c -13.63227,6.229139 -32.16196,9.398687 -46.29441,5.077489 -45.320755,-13.857641 -39.82383,-67.840298 5.53517,-76.161889 53.3515,-9.78790329 75.00682,43.995471 40.75924,71.0844 z"
       id="path4150"
       inkscape:connector-curvature="0"
       sodipodi:nodetypes="cssc" />
    <path
       style="fill:none;fill-rule:evenodd;stroke:#000000;stroke-width:4.33390665;stroke-linecap:round;stroke-linejoin:miter;stroke-miterlimit:4;stroke-dasharray:none;stroke-opacity:1"
       d="m 213.02842,196.43427 c 34.15088,37.51372 98.94563,-47.87503 34.87365,-47.87503"
       id="path4152"
       inkscape:connector-curvature="0" />
    <path
       style="fill:none;fill-rule:evenodd;stroke:#000000;stroke-width:4.33390665;stroke-linecap:round;stroke-linejoin:miter;stroke-miterlimit:4;stroke-dasharray:none;stroke-opacity:1"
       d="m 264.794,192.52612 c 6.18771,5.54255 13.30679,5.3737 21.79602,5.3737 10.791,0 22.75369,-8.55642 27.24505,-16.60969 24.31624,-43.60061 -46.45035,-63.77395 -50.13086,-30.77683"
       id="path4154"
       inkscape:connector-curvature="0" />
    <path
       style="fill:none;fill-rule:evenodd;stroke:#000000;stroke-width:4.33390665;stroke-linecap:round;stroke-linejoin:miter;stroke-miterlimit:4;stroke-dasharray:none;stroke-opacity:1"
       d="m 291.09881,134.12218 c 0.55377,-9.77814 3.48204,-15.82395 13.47294,-17.3168 58.91381,-8.80303 60.10645,51.04185 15.25723,47.38651"
       id="path4160"
       inkscape:connector-curvature="0"
       sodipodi:nodetypes="csc" />
    <path
       style="fill:none;fill-rule:evenodd;stroke:#000000;stroke-width:4.33390665;stroke-linecap:round;stroke-linejoin:miter;stroke-miterlimit:4;stroke-dasharray:none;stroke-opacity:1"
       d="M 349.66545,131.88497 C 380.31303,90.687163 280.11863,63.707677 304.02686,117.29389"
       id="path4166"
       inkscape:connector-curvature="0"
       sodipodi:nodetypes="cc" />
    <path
       style="fill:none;fill-rule:evenodd;stroke:#000000;stroke-width:3.28528237;stroke-linecap:round;stroke-linejoin:miter;stroke-miterlimit:4;stroke-dasharray:none;stroke-opacity:1"
       d="M 128.00805,16.219105 C 118.9759,1.0963273 110.46231,-12.146231 109.56542,-27.150559"
       id="path4168"
       inkscape:connector-curvature="0"
       sodipodi:nodetypes="cc" />
    <path
       style="fill:none;fill-rule:evenodd;stroke:#000000;stroke-width:3.28528237;stroke-linecap:round;stroke-linejoin:miter;stroke-miterlimit:4;stroke-dasharray:none;stroke-opacity:1"
       d="m 182.18421,11.923121 c 1.01165,-13.8683986 2.39026,-23.847752 3.62289,-35.486024"
       id="path4170"
       inkscape:connector-curvature="0"
       sodipodi:nodetypes="cc" />
    <ellipse
       ry="9.5807867"
       rx="12.260272"
       cy="34.146126"
       cx="188.14786"
       id="ellipse4194"
       style="fill:none;stroke:#000000;stroke-width:2.9251771;stroke-linecap:round;stroke-miterlimit:4;stroke-dasharray:none;stroke-opacity:1"
       transform="scale(1,-1)" />
    <ellipse
       style="fill:none;stroke:#000000;stroke-width:2.9251771;stroke-linecap:round;stroke-miterlimit:4;stroke-dasharray:none;stroke-opacity:1"
       id="ellipse4196"
       cx="106.39841"
       cy="36.780239"
       rx="12.260272"
       ry="9.5807867"
       transform="scale(1,-1)" />
    <g
       id="g3385"
       transform="matrix(1.6863836,0,0,-1.8680151,-55.193518,245.60318)">
      <path
         inkscape:connector-curvature="0"
         id="path4204"
         d="m 131.12646,105.12081 c -1.59712,0.66395 -3.43824,0.73035 -5.24583,0.73035 -4.6127,0 -11.29183,-4.33546 -4.993,-7.13497 4.99242,-2.218881 16.86357,2.72417 10.23883,6.40462 z"
         style="fill:#f8aa00;fill-opacity:1;fill-rule:evenodd;stroke:#000000;stroke-width:2.83149719;stroke-linecap:butt;stroke-linejoin:miter;stroke-miterlimit:4;stroke-dasharray:none;stroke-opacity:1" />
      <path
         sodipodi:nodetypes="cc"
         inkscape:connector-curvature="0"
         id="path4206"
         d="m 127.3975,91.46886 c 7.85787,-1.627401 15.05978,7.194116 15.67428,13.2025"
         style="fill:none;fill-rule:evenodd;stroke:#000000;stroke-width:2.83149719;stroke-linecap:round;stroke-linejoin:miter;stroke-miterlimit:4;stroke-dasharray:none;stroke-opacity:1" />
      <path
         sodipodi:nodetypes="cscsc"
         inkscape:connector-curvature="0"
         id="path4210"
         d="m 126.07416,120.63521 c -1.94634,-0.39235 -3.00521,-1.60264 -3.08369,-3.41643 -0.0435,-1.00666 -0.0182,-1.98701 0.17877,-2.97943 0.35523,-1.78936 0.98591,-2.64297 2.72615,-3.41643 5.50342,-2.44599 9.01094,10.52601 0.17877,9.81229 z"
         style="fill:#ffffff;fill-opacity:1;fill-rule:evenodd;stroke:#000000;stroke-width:1.88766479;stroke-linecap:butt;stroke-linejoin:miter;stroke-miterlimit:4;stroke-dasharray:none;stroke-opacity:1" />
      <path
         style="fill:#ffffff;fill-opacity:1;fill-rule:evenodd;stroke:#000000;stroke-width:1.88299215;stroke-linecap:butt;stroke-linejoin:miter;stroke-miterlimit:4;stroke-dasharray:none;stroke-opacity:1"
         d="m 115.71114,107.4085 c 1.95303,0.38907 3.01554,1.58925 3.09429,3.38788 0.0438,0.99825 0.0182,1.97041 -0.17938,2.95455 -0.35646,1.7744 -0.98931,2.62088 -2.73552,3.38787 -5.52236,2.42556 -9.04194,-10.43806 -0.17939,-9.7303 z"
         id="path4232"
         inkscape:connector-curvature="0"
         sodipodi:nodetypes="cscsc" />
      <ellipse
         transform="scale(1,-1)"
         ry="2.191052"
         rx="1.4536624"
         cy="-116.80643"
         cx="124.86938"
         id="path4234"
         style="fill:none;stroke:#000000;stroke-width:2.83149719;stroke-linecap:round;stroke-miterlimit:4;stroke-dasharray:none;stroke-opacity:1" />
      <ellipse
         transform="scale(1,-1)"
         ry="2.0225093"
         rx="1.3904597"
         cy="-110.90742"
         cx="115.83141"
         id="path4236"
         style="fill:none;stroke:#000000;stroke-width:2.83149719;stroke-linecap:round;stroke-miterlimit:4;stroke-dasharray:none;stroke-opacity:1" />
    </g>
    <path
       style="fill:none;fill-rule:evenodd;stroke:#000000;stroke-width:4.2069521;stroke-linecap:butt;stroke-linejoin:miter;stroke-miterlimit:4;stroke-dasharray:none;stroke-opacity:1"
       d="m 310.1815,90.857341 c -1.21386,-11.228429 4.4744,-18.813149 13.23355,-23.022919 30.85329,-14.828497 59.35601,28.223231 32.7302,40.735558"
       id="path4258"
       inkscape:connector-curvature="0"
       sodipodi:nodetypes="csc" />
    <path
       style="fill:none;fill-rule:evenodd;stroke:#000000;stroke-width:3.03207445;stroke-linecap:butt;stroke-linejoin:miter;stroke-miterlimit:4;stroke-dasharray:none;stroke-opacity:1"
       d="m 325.59924,68.846038 c 3.33649,-28.829011 42.01738,-39.237596 58.17303,-7.542755 6.49645,12.745048 -10.71975,18.634885 -20.11064,24.34254"
       id="path4262"
       inkscape:connector-curvature="0"
       sodipodi:nodetypes="csc" />
    <path
       style="fill:none;fill-rule:evenodd;stroke:#000000;stroke-width:2.88927078;stroke-linecap:butt;stroke-linejoin:miter;stroke-miterlimit:4;stroke-dasharray:none;stroke-opacity:1"
       d="m 382.6158,93.74268 c 0.62507,41.27866 69.70695,0.93142 25.45479,-19.16824"
       id="path4268"
       inkscape:connector-curvature="0"
       sodipodi:nodetypes="cc" />
    <path
       style="fill:none;fill-rule:evenodd;stroke:#000000;stroke-width:2.88927078;stroke-linecap:butt;stroke-linejoin:miter;stroke-miterlimit:4;stroke-dasharray:none;stroke-opacity:1"
       d="m 393.67901,111.45469 c -6.1794,0.50039 -6.07984,4.11681 -4.3855,8.64756 9.34301,24.98375 53.43629,-11.39995 31.57644,-20.02879"
       id="path4270"
       inkscape:connector-curvature="0"
       sodipodi:nodetypes="csc" />
    <path
       style="fill:none;fill-rule:evenodd;stroke:#000000;stroke-width:2.88927078;stroke-linecap:butt;stroke-linejoin:miter;stroke-miterlimit:4;stroke-dasharray:none;stroke-opacity:1"
       d="m 400.96076,129.50778 c 3.7947,23.70572 46.98672,1.11521 22.27464,-10.861"
       id="path4274"
       inkscape:connector-curvature="0"
       sodipodi:nodetypes="cc" />
    <path
       style="fill:none;fill-rule:evenodd;stroke:#000000;stroke-width:2.88927078;stroke-linecap:round;stroke-linejoin:miter;stroke-miterlimit:4;stroke-dasharray:none;stroke-opacity:1"
       d="m 370.95608,82.653983 c 0.2426,10.817291 11.82751,13.517362 21.56266,9.24583 23.68439,-10.392098 22.82997,-40.798075 -15.79027,-42.798075"
       id="path4276"
       inkscape:connector-curvature="0"
       sodipodi:nodetypes="csc" />
    <path
       style="fill:none;fill-rule:evenodd;stroke:#000000;stroke-width:2.88927078;stroke-linecap:butt;stroke-linejoin:miter;stroke-miterlimit:4;stroke-dasharray:none;stroke-opacity:1"
       d="m 418.63278,140.40681 c 1.87704,13.0868 28.47946,-4.95897 13.35007,-12.31075"
       id="path4278"
       inkscape:connector-curvature="0"
       sodipodi:nodetypes="cc" />
    <path
       style="fill:none;fill-rule:evenodd;stroke:#000000;stroke-width:2.88927078;stroke-linecap:butt;stroke-linejoin:miter;stroke-miterlimit:4;stroke-dasharray:none;stroke-opacity:1"
       d="m 428.54998,144.51037 c 8.17552,8.33253 17.42661,-1.60598 8.39147,-8.54912"
       id="path4280"
       inkscape:connector-curvature="0" />
    <path
       style="fill:none;fill-rule:evenodd;stroke:#000000;stroke-width:4.59181786;stroke-linecap:round;stroke-linejoin:miter;stroke-miterlimit:4;stroke-dasharray:none;stroke-opacity:1"
       d="m 225.33221,111.73643 c 0.71725,-6.18515 5.57723,-10.96462 10.77684,-13.586751"
       id="path4195"
       inkscape:connector-curvature="0" />
    <path
       style="fill:none;fill-rule:evenodd;stroke:#000000;stroke-width:4.59181786;stroke-linecap:round;stroke-linejoin:miter;stroke-miterlimit:4;stroke-dasharray:none;stroke-opacity:1"
       d="m 172.76203,184.94116 c -0.91037,10.34586 -10.70286,12.99351 -17.24296,17.39103"
       id="path4197"
       inkscape:connector-curvature="0" />
    <path
       style="fill:none;fill-rule:evenodd;stroke:#000000;stroke-width:4.59181786;stroke-linecap:round;stroke-linejoin:miter;stroke-miterlimit:4;stroke-dasharray:none;stroke-opacity:1"
       d="m 198.62647,194.18014 c -2.01422,6.04631 -6.24179,11.98664 -11.85454,15.76063"
       id="path4199"
       inkscape:connector-curvature="0" />
    <path
       style="fill:none;fill-rule:evenodd;stroke:#000000;stroke-width:4.59181786;stroke-linecap:round;stroke-linejoin:miter;stroke-miterlimit:4;stroke-dasharray:none;stroke-opacity:1"
       d="m 316.09408,177.87607 c 5.88413,1.25736 11.63354,4.54306 12.93222,9.78244"
       id="path4203"
       inkscape:connector-curvature="0" />
    <path
       style="fill:none;fill-rule:evenodd;stroke:#000000;stroke-width:2.61360812;stroke-linecap:round;stroke-linejoin:miter;stroke-miterlimit:4;stroke-dasharray:none;stroke-opacity:1"
       d="m 419.23578,81.168022 c 2.6603,-4.600048 6.54012,-6.379714 9.87079,-8.953201"
       id="path4205"
       inkscape:connector-curvature="0" />
    <path
       style="fill:none;fill-rule:evenodd;stroke:#000000;stroke-width:2.45558953;stroke-linecap:round;stroke-linejoin:miter;stroke-miterlimit:4;stroke-dasharray:none;stroke-opacity:1"
       d="m 399.89191,55.975616 c 2.23044,-3.900886 6.01788,-4.198157 9.27242,-5.141478"
       id="path4207"
       inkscape:connector-curvature="0" />
    <path
       style="fill:none;fill-rule:evenodd;stroke:#000000;stroke-width:4.59181786;stroke-linecap:butt;stroke-linejoin:miter;stroke-miterlimit:4;stroke-dasharray:none;stroke-opacity:1"
       d="m 237.18675,97.606213 c 14.5705,6.044987 14.56636,-14.1302 -0.53884,-14.1302 -3.69261,0 -3.23307,2.728983 -3.23307,5.978165 0,2.212006 2.25519,6.112398 3.77191,8.152035 z"
       id="path4215"
       inkscape:connector-curvature="0" />
    <path
       style="fill:none;fill-rule:evenodd;stroke:#000000;stroke-width:2.45558953;stroke-linecap:round;stroke-linejoin:miter;stroke-miterlimit:4;stroke-dasharray:none;stroke-opacity:1"
       d="m 409.56748,50.059706 c -12.65162,-20.675615 14.40737,-10.62749 5.64409,-0.467404 -1.24804,1.446961 -6.01296,0.638462 -7.65985,1.402226"
       id="path4217"
       inkscape:connector-curvature="0" />
    <path
       style="fill:none;fill-rule:evenodd;stroke:#000000;stroke-width:2.61360812;stroke-linecap:round;stroke-linejoin:miter;stroke-miterlimit:4;stroke-dasharray:none;stroke-opacity:1"
       d="m 430.07121,72.135245 c -0.3293,-3.595305 -2.14583,-5.702756 -2.14583,-9.450621 0,-0.979709 1.41965,-2.703849 2.14583,-2.984405 9.9121,-3.829351 7.90475,18.700206 0.62849,13.078117"
       id="path4219"
       inkscape:connector-curvature="0"
       sodipodi:nodetypes="cscc" />
    <path
       style="fill:none;fill-rule:evenodd;stroke:#000000;stroke-width:4.59181786;stroke-linecap:butt;stroke-linejoin:miter;stroke-miterlimit:4;stroke-dasharray:none;stroke-opacity:1"
       d="m 330.53132,188.34317 c -2.95718,1.22118 -7.09762,2.64547 -8.00139,5.38006 -1.08361,3.27876 -4.10532,6.35968 -5.33427,8.83869 -3.3299,6.71702 22.61787,4.25969 17.9079,-9.99157 -0.68143,-2.06187 -2.51885,-4.22718 -4.57224,-4.22718 z"
       id="path4225"
       inkscape:connector-curvature="0" />
    <path
       style="fill:none;fill-rule:evenodd;stroke:#000000;stroke-width:4.59181786;stroke-linecap:butt;stroke-linejoin:miter;stroke-miterlimit:4;stroke-dasharray:none;stroke-opacity:1"
       d="m 184.98204,210.63204 c -3.31084,-1.13896 -6.43165,-2.20394 -10.28752,-2.69003 -8.46162,-1.06681 -14.21515,5.81347 -6.85835,10.76013 5.73155,3.85382 24.50563,1.82717 17.14587,-8.0701 z"
       id="path4231"
       inkscape:connector-curvature="0" />
    <path
       inkscape:connector-curvature="0"
       id="path4233"
       d="m 132.3259,199.11793 c 3.40112,-1.13423 6.60701,-2.19482 10.56803,-2.67893 8.69234,-1.0624 14.60275,5.78951 7.04535,10.71576 -5.88782,3.83793 -25.17382,1.81962 -17.61338,-8.03683 z"
       style="fill:none;fill-rule:evenodd;stroke:#000000;stroke-width:4.64439011;stroke-linecap:butt;stroke-linejoin:miter;stroke-miterlimit:4;stroke-dasharray:none;stroke-opacity:1" />
  </g>
</svg>
