<?xml version="1.0" encoding="UTF-8" standalone="no"?>
<!-- Created with Inkscape (http://www.inkscape.org/) -->

<svg
   xmlns:dc="http://purl.org/dc/elements/1.1/"
   xmlns:cc="http://creativecommons.org/ns#"
   xmlns:rdf="http://www.w3.org/1999/02/22-rdf-syntax-ns#"
   xmlns:svg="http://www.w3.org/2000/svg"
   xmlns="http://www.w3.org/2000/svg"
   xmlns:sodipodi="http://sodipodi.sourceforge.net/DTD/sodipodi-0.dtd"
   xmlns:inkscape="http://www.inkscape.org/namespaces/inkscape"
   width="78.14315mm"
   height="58.489079mm"
   viewBox="0 0 276.88518 207.24477"
   id="svg2"
   version="1.1"
   inkscape:version="0.91 r13725"
   sodipodi:docname="logo.svg">
  <defs
     id="defs4" />
  <sodipodi:namedview
     id="base"
     pagecolor="#ffffff"
     bordercolor="#666666"
     borderopacity="1.0"
     inkscape:pageopacity="0.0"
     inkscape:pageshadow="2"
     inkscape:zoom="2.8284271"
     inkscape:cx="88.463492"
     inkscape:cy="134.91593"
     inkscape:document-units="px"
     inkscape:current-layer="layer1"
     showgrid="false"
     inkscape:window-width="1867"
     inkscape:window-height="1035"
     inkscape:window-x="53"
     inkscape:window-y="0"
     inkscape:window-maximized="1"
     fit-margin-top="5"
     fit-margin-left="5"
     fit-margin-bottom="5"
     fit-margin-right="5" />
  <metadata
     id="metadata7">
    <rdf:RDF>
      <cc:Work
         rdf:about="">
        <dc:format>image/svg+xml</dc:format>
        <dc:type
           rdf:resource="http://purl.org/dc/dcmitype/StillImage" />
        <dc:title></dc:title>
      </cc:Work>
    </rdf:RDF>
  </metadata>
  <g
     inkscape:label="Layer 1"
     inkscape:groupmode="layer"
     id="layer1"
     transform="translate(-68.366216,-26.839758)">
    <path
       style="fill:none;fill-rule:evenodd;stroke:#e2e5e3;stroke-width:8;stroke-linecap:round;stroke-linejoin:miter;stroke-miterlimit:4;stroke-dasharray:none;stroke-opacity:1"
       d="m 301,99.3622 c 5.60183,-0.53601 16.47946,15.28995 22,15.75"
       id="path4245"
       inkscape:connector-curvature="0"
       sodipodi:nodetypes="cc" />
    <path
       inkscape:connector-curvature="0"
       id="path4239"
       d="m 178.25,127.1122 c 5.60183,-0.53601 5.22946,-0.96005 10.75,-0.5"
       style="fill:none;fill-rule:evenodd;stroke:#e2e5e3;stroke-width:8;stroke-linecap:round;stroke-linejoin:miter;stroke-miterlimit:4;stroke-dasharray:none;stroke-opacity:1"
       sodipodi:nodetypes="cc" />
    <path
       style="fill:none;fill-rule:evenodd;stroke:#e2e5e3;stroke-width:8;stroke-linecap:round;stroke-linejoin:miter;stroke-miterlimit:4;stroke-dasharray:none;stroke-opacity:1"
       d="m 236.75,198.8622 c 5.60183,-0.53601 10.97946,0.53995 16.5,1"
       id="path4241"
       inkscape:connector-curvature="0" />
    <path
       inkscape:connector-curvature="0"
       id="path4243"
       d="m 236.75,198.8622 c 5.60183,-0.53601 10.97946,0.53995 16.5,1"
       style="fill:none;fill-rule:evenodd;stroke:#e2e5e3;stroke-width:8;stroke-linecap:round;stroke-linejoin:miter;stroke-miterlimit:4;stroke-dasharray:none;stroke-opacity:1" />
    <path
       inkscape:connector-curvature="0"
       id="path4237"
       d="m 139.25,212.3622 c 5.60183,-0.53601 5.22946,-7.21005 10.75,-6.75"
       style="fill:none;fill-rule:evenodd;stroke:#e2e5e3;stroke-width:8;stroke-linecap:round;stroke-linejoin:miter;stroke-miterlimit:4;stroke-dasharray:none;stroke-opacity:1"
       sodipodi:nodetypes="cc" />
    <path
       style="fill:none;fill-rule:evenodd;stroke:#e2e5e3;stroke-width:8;stroke-linecap:round;stroke-linejoin:miter;stroke-miterlimit:4;stroke-dasharray:none;stroke-opacity:1"
       d="m 112.25,202.8622 c 5.60183,-0.53601 10.97946,0.53995 16.5,1"
       id="path4235"
       inkscape:connector-curvature="0" />
    <path
       style="fill:none;fill-rule:evenodd;stroke:#eae03e;stroke-width:4.71916199;stroke-linecap:round;stroke-linejoin:miter;stroke-miterlimit:4;stroke-dasharray:none;stroke-opacity:1"
       d="m 319.1357,167.81135 c 0.15723,-5.10812 1.72953,-1.90922 6.00648,-2.66957"
       id="path4296"
       inkscape:connector-curvature="0"
       sodipodi:nodetypes="cc" />
    <path
       style="fill:none;fill-rule:evenodd;stroke:#007621;stroke-width:5.66299438;stroke-linecap:round;stroke-linejoin:miter;stroke-miterlimit:4;stroke-dasharray:none;stroke-opacity:1"
       d="m 311.37733,167.36642 c 2.55093,-2.26039 5.13251,-4.51919 6.75729,-7.11887"
       id="path4294"
       inkscape:connector-curvature="0" />
    <path
       style="fill:none;fill-rule:evenodd;stroke:#00e000;stroke-width:5.66299438;stroke-linecap:round;stroke-linejoin:miter;stroke-miterlimit:4;stroke-dasharray:none;stroke-opacity:1"
       d="m 300.86599,160.69248 c 6.40138,0.0764 7.47332,2.47804 12.26323,-1.77971 2.56111,-2.27657 -11.90697,1.71954 -10.76161,-1.33479 1.0057,-2.68188 6.92479,-3.19313 9.25999,-3.55944"
       id="path4292"
       inkscape:connector-curvature="0"
       sodipodi:nodetypes="cssc" />
    <path
       style="fill:none;fill-rule:evenodd;stroke:#00e0f4;stroke-width:7.55065918;stroke-linecap:round;stroke-linejoin:miter;stroke-miterlimit:4;stroke-dasharray:none;stroke-opacity:1"
       d="m 289.60385,152.90622 c 3.00324,0 6.00648,0 9.00971,0 22.24205,0 -26.30669,-4.44929 1.25135,-4.44929 3.90794,0 9.48655,-0.44493 12.5135,-0.44493 3.22019,0 -11.537,-0.42309 -9.25999,-2.44712 3.30126,-2.93448 13.95508,-2.01404 18.51998,-1.11232"
       id="path4290"
       inkscape:connector-curvature="0" />
    <path
       style="fill:none;fill-rule:evenodd;stroke:#48aa55;stroke-width:7.55065918;stroke-linecap:round;stroke-linejoin:miter;stroke-miterlimit:4;stroke-dasharray:none;stroke-opacity:1"
       d="m 289.10331,141.56052 c 3.00324,0 6.00648,0 9.00971,0 21.10354,0 -19.44871,-6.67394 -1.25135,-6.67394 1.74029,0 15.6154,1.38186 16.26755,0.22246 2.30709,-4.10153 -14.2513,-6.38428 -3.75405,-11.56816"
       id="path4288"
       inkscape:connector-curvature="0" />
    <path
       style="fill:none;fill-rule:evenodd;stroke:#b2ddb5;stroke-width:7.55065918;stroke-linecap:round;stroke-linejoin:miter;stroke-miterlimit:4;stroke-dasharray:none;stroke-opacity:1"
       d="m 276.33954,127.99017 c 4.61498,-1.49332 18.49254,3.58382 22.02375,0.44493 2.69165,-2.3926 -16.26754,-3.61172 -16.26754,-7.11887 0,-3.16867 9.02994,-1.77971 11.26215,-1.77971 13.69874,0 -16.38139,-19.707268 5.50593,-8.89859"
       id="path4286"
       inkscape:connector-curvature="0"
       sodipodi:nodetypes="csssc" />
    <path
       style="fill:none;fill-rule:evenodd;stroke:#00d191;stroke-width:7.55065918;stroke-linecap:round;stroke-linejoin:miter;stroke-miterlimit:4;stroke-dasharray:none;stroke-opacity:1"
       d="m 276.33954,122.42856 c -2.18083,-4.49506 -7.53346,-6.23625 -11.26215,-9.34352 -2.9441,-2.45344 -17.01836,-15.837731 -17.01836,-4.44929 0,1.89362 13.64663,2.3096 15.26647,2.66957 2.23504,0.49668 19.64905,5.77902 21.02268,3.33697 3.60117,-6.40216 -28.47625,-8.10567 -21.52322,-20.466747"
       id="path4284"
       inkscape:connector-curvature="0" />
    <path
       style="fill:none;fill-rule:evenodd;stroke:#14d4fa;stroke-width:7.55065918;stroke-linecap:round;stroke-linejoin:miter;stroke-miterlimit:4;stroke-dasharray:none;stroke-opacity:1"
       d="m 268.83144,138.44601 c -6.72739,-5.49005 -15.54482,-11.29632 -24.77673,-13.34788 -1.80088,-0.4002 -9.03879,-5.18915 -9.25999,-4.89422 -0.92155,1.22875 -2.00124,2.66795 -2.75296,4.00437 -0.3909,0.69492 9.47705,-0.51581 11.01187,-0.6674 12.53189,-1.23773 21.54598,-0.20224 30.0324,7.34134 4.86809,4.32724 -34.98626,-8.32283 -31.78429,-14.01528 2.78507,-4.95129 19.33545,0.0575 22.5243,2.89204"
       id="path4282"
       inkscape:connector-curvature="0" />
    <path
       style="fill:none;fill-rule:evenodd;stroke:#007bd6;stroke-width:7.55065918;stroke-linecap:round;stroke-linejoin:miter;stroke-miterlimit:4;stroke-dasharray:none;stroke-opacity:1"
       d="m 230.0396,142.89531 c 10.98171,-0.8728 21.22185,2.43196 31.03347,5.33915 0.92493,0.27405 5.31931,5.22602 5.50594,4.89422 6.76855,-12.03311 -32.77919,-7.10789 -37.03995,-14.68267 -0.99665,-1.77183 28.52683,2.67133 32.53509,0.88986 5.4066,-2.40296 -19.66204,-14.51417 -35.53833,-6.67394"
       id="path4256"
       inkscape:connector-curvature="0" />
    <path
       style="fill:none;fill-rule:evenodd;stroke:#24e06e;stroke-width:7.55065918;stroke-linecap:round;stroke-linejoin:miter;stroke-miterlimit:4;stroke-dasharray:none;stroke-opacity:1"
       d="m 241.55201,173.15051 c 2.98421,0.0484 11.28954,1.40506 13.01427,1.40032 14.05309,-0.0387 -16.01593,-3.17726 -18.01967,-6.73948 -1.49521,-2.65818 23.34215,-1.66054 20.52214,-6.67394 -3.27674,-5.8254 -26.97026,1.83207 -32.03455,-2.66957 -1.79169,-1.59263 33.21846,-2.50706 29.53185,-5.78409 -7.57757,-6.73569 -25.33986,-0.17304 -35.03779,-4.00436"
       id="path4254"
       inkscape:connector-curvature="0"
       sodipodi:nodetypes="csssssc" />
    <path
       style="fill:none;fill-rule:evenodd;stroke:#009580;stroke-width:7.55065918;stroke-linecap:round;stroke-linejoin:miter;stroke-miterlimit:4;stroke-dasharray:none;stroke-opacity:1"
       d="m 205.0126,193.42657 c 4.06243,-0.11755 8.08442,-0.31781 12.15597,-0.31781 35.98121,0 -20.06431,-2.6857 -2.5027,-4.76709 11.30273,-1.33961 23.60815,1.28123 21.45171,-0.63562 -1.19475,-1.06201 -32.08491,-1.9892 -31.82004,-2.22465 6.00379,-5.33677 25.67604,4.50797 33.25015,-2.22464 1.17437,-1.0439 -12.48933,-1.26408 -23.23935,-4.4493 -7.15504,-2.12003 28.79968,1.81195 22.52429,-1.90684 -2.9728,-1.76168 -8.09694,-1.04858 -11.44091,-1.58903 -42.1185,-6.80711 9.0015,-5.19742 10.36834,-7.62736 1.41306,-2.51214 -48.25513,-6.99175 -11.44092,-6.99175"
       id="path4252"
       inkscape:connector-curvature="0" />
    <path
       style="fill:none;fill-rule:evenodd;stroke:#00cb00;stroke-width:7.55065918;stroke-linecap:round;stroke-linejoin:miter;stroke-miterlimit:4;stroke-dasharray:none;stroke-opacity:1"
       d="m 174.23071,201.58326 c 40.24384,2.93381 -2.49634,-1.42465 9.10119,-5.8428 8.80292,-3.35353 11.07198,-3.5588 13.55977,-4.00288 5.15974,-0.92102 11.84857,-15.6336 3.34,-9.05788 -16.89977,13.06076 0.6171,-6.23132 1.80823,-10.7599"
       id="path4250"
       inkscape:connector-curvature="0"
       sodipodi:nodetypes="csssc" />
    <path
       style="fill:none;fill-rule:evenodd;stroke:#00ccb1;stroke-width:7.55065918;stroke-linecap:round;stroke-linejoin:miter;stroke-miterlimit:4;stroke-dasharray:none;stroke-opacity:1"
       d="m 140.85968,191.69544 c 3.5144,-0.26186 38.93287,0.95821 38.93287,-0.89889 0,-0.14507 -57.95314,-5.39337 -26.79795,-5.39337 5.3933,0 10.78659,0 16.17989,0 4.49403,0 16.32432,0.32107 18.708,-1.79778 2.54096,-2.25865 -54.84852,-2.48212 -48.03405,-8.53948 14.36503,-12.76907 54.05277,10.90312 43.48346,-12.58451"
       id="path4248"
       inkscape:connector-curvature="0" />
    <path
       style="fill:#eae03e;fill-opacity:1;fill-rule:evenodd;stroke:#eae03e;stroke-width:7.55065918;stroke-linecap:round;stroke-linejoin:miter;stroke-miterlimit:4;stroke-dasharray:none;stroke-opacity:1"
       d="m 139.97001,56.572956 c 1.87353,3.09009 14.59083,1.52873 11.79843,-0.95342 -4.39404,-3.90585 -17.60093,-5.40271 -14.30114,-5.40271 7.33117,0 7.433,2.26638 13.22856,-0.95342"
       id="path4246"
       inkscape:connector-curvature="0"
       sodipodi:nodetypes="cssc" />
    <path
       style="fill:#ffcc00;fill-rule:evenodd;stroke:#eae03e;stroke-width:7.55065918;stroke-linecap:round;stroke-linejoin:miter;stroke-miterlimit:4;stroke-dasharray:none;stroke-opacity:1"
       d="m 89.864,57.50523 c 2.96175,-28.38365 3.147779,20.60245 11.88211,-7.86531"
       id="path4244"
       inkscape:connector-curvature="0" />
    <path
       style="fill:none;fill-rule:evenodd;stroke:#00c4f0;stroke-width:7.55065918;stroke-linecap:round;stroke-linejoin:miter;stroke-miterlimit:4;stroke-dasharray:none;stroke-opacity:1"
       d="m 127.07138,164.18836 c 15.6181,-1.48927 34.21564,1.00101 48.62388,-5.40272 3.66386,-1.62841 -48.62388,-1.85884 -48.62388,-7.94517 0,-0.98407 30.82077,-0.83312 32.53509,-0.95342 2.92162,-0.20503 17.9488,0.57128 20.37913,-1.58904 3.3113,-2.9434 -8.99414,-2.36171 -13.58608,-3.17806 -3.43701,-0.61103 -10.0108,-5.97592 -10.0108,-2.86026 0,1.13871 12.06357,-4.47624 12.5135,-4.7671"
       id="path4242"
       inkscape:connector-curvature="0" />
    <path
       style="fill:#338000;fill-rule:evenodd;stroke:#009500;stroke-width:11.32598877;stroke-linecap:round;stroke-linejoin:miter;stroke-miterlimit:4;stroke-dasharray:none;stroke-opacity:1"
       d="m 129.78789,144.02554 c -32.755214,-17.88696 -6.7803,-9.72358 0.004,-6.81675 8.21613,3.52018 19.43245,8.55923 8.40903,-6.958 -1.01303,-1.80098 16.94302,7.1971 24.49335,5.07648 4.34481,-1.2203 -18.36954,-9.29518 -7.45466,-13.88859 12.58785,-5.29746 -6.23531,-1.27831 8.29938,-9.03023"
       id="path4240"
       inkscape:connector-curvature="0"
       sodipodi:nodetypes="cscssc" />
    <path
       style="fill:#55d400;fill-rule:evenodd;stroke:#9bc700;stroke-width:10.73326206;stroke-linecap:round;stroke-linejoin:miter;stroke-miterlimit:4;stroke-dasharray:none;stroke-opacity:1"
       d="m 134.8768,86.71333 c -35.852341,14.00075 39.60033,-13.43644 -28.65167,6.781355 -13.893462,4.560064 58.48524,2.099791 44.06098,5.086015 -4.86844,0.857005 -50.840329,-0.814426 -53.451034,1.48342 -2.632618,2.31713 7.378874,0.88107 11.075444,1.2715 15.09664,4.47418 64.45309,0.5446 25.76243,3.6026 -10.50599,1.08788 -24.34607,7.41613 -34.174887,7.41613 -4.063884,0 9.404757,-2.75395 13.468627,-2.75395 0.86161,-0.0581 1.94543,-0.0267 3.18632,0.0769 10.64891,0.88976 32.86566,7.10376 25.48782,7.76538 -7.59155,0 -20.67364,4.04167 -28.00946,2.75033"
       id="path4238"
       inkscape:connector-curvature="0"
       sodipodi:nodetypes="cccsccscscc" />
    <path
       style="fill:none;fill-rule:evenodd;stroke:#000000;stroke-width:2.83149719;stroke-linecap:butt;stroke-linejoin:miter;stroke-miterlimit:4;stroke-dasharray:none;stroke-opacity:1"
       d="m 114.42978,126.75041 c -8.90504,18.60344 27.63922,25.15223 39.57606,16.4048 15.03986,-11.02135 23.82564,-32.5689 -1.58256,-32.5689"
       id="path4144"
       inkscape:connector-curvature="0"
       sodipodi:nodetypes="csc" />
    <path
       style="fill:none;fill-rule:evenodd;stroke:#000000;stroke-width:2.83149719;stroke-linecap:butt;stroke-linejoin:miter;stroke-miterlimit:4;stroke-dasharray:none;stroke-opacity:1"
       d="m 129.48319,147.64968 c -13.06437,22.78001 23.8327,23.76248 38.42725,18.20259 15.13653,-5.76637 9.18778,-29.28853 -4.29779,-31.68599"
       id="path4146"
       inkscape:connector-curvature="0"
       sodipodi:nodetypes="csc" />
    <path
       style="fill:none;fill-rule:evenodd;stroke:#000000;stroke-width:2.83149719;stroke-linecap:butt;stroke-linejoin:miter;stroke-miterlimit:4;stroke-dasharray:none;stroke-opacity:1"
       d="m 142.62936,169.22311 c -18.83402,17.27457 12.62918,32.26168 31.09573,26.29262 25.17429,-8.13723 27.85655,-36.18044 0.75843,-36.18044"
       id="path4148"
       inkscape:connector-curvature="0"
       sodipodi:nodetypes="csc" />
    <path
       style="fill:none;fill-rule:evenodd;stroke:#000000;stroke-width:3.2896049;stroke-linecap:round;stroke-linejoin:miter;stroke-miterlimit:4;stroke-dasharray:none;stroke-opacity:1"
       d="m 143.74342,123.39001 c -8.07277,3.47279 -19.04572,5.23983 -27.41468,2.83073 -26.838087,-7.72572 -23.582914,-37.821395 3.27783,-42.460735 31.59374,-5.456819 44.41762,24.527755 24.13685,39.630005 z"
       id="path4150"
       inkscape:connector-curvature="0"
       sodipodi:nodetypes="cssc" />
    <path
       style="fill:none;fill-rule:evenodd;stroke:#000000;stroke-width:2.83149719;stroke-linecap:round;stroke-linejoin:miter;stroke-miterlimit:4;stroke-dasharray:none;stroke-opacity:1"
       d="m 168.90222,197.87586 c 22.40758,24.40451 64.9217,-31.14505 22.88182,-31.14505"
       id="path4152"
       inkscape:connector-curvature="0" />
    <path
       style="fill:none;fill-rule:evenodd;stroke:#000000;stroke-width:2.83149719;stroke-linecap:round;stroke-linejoin:miter;stroke-miterlimit:4;stroke-dasharray:none;stroke-opacity:1"
       d="m 202.86743,195.33341 c 4.05998,3.60571 8.73105,3.49587 14.30114,3.49587 7.08035,0 14.92949,-5.56637 17.87642,-10.80543 15.95475,-28.36432 -30.47769,-41.48806 -32.89262,-20.02182"
       id="path4154"
       inkscape:connector-curvature="0" />
    <path
       style="fill:none;fill-rule:evenodd;stroke:#000000;stroke-width:2.83149719;stroke-linecap:round;stroke-linejoin:miter;stroke-miterlimit:4;stroke-dasharray:none;stroke-opacity:1"
       d="m 215.0234,156.8788 c 0.36335,-6.36116 7.38823,-9.83425 13.94361,-10.80542 38.65542,-5.7268 39.43795,33.20522 10.0108,30.82724"
       id="path4160"
       inkscape:connector-curvature="0" />
    <path
       style="fill:none;fill-rule:evenodd;stroke:#000000;stroke-width:2.83149719;stroke-linecap:round;stroke-linejoin:miter;stroke-miterlimit:4;stroke-dasharray:none;stroke-opacity:1"
       d="M 259.71447,159.10344 C 290.9584,134.6023 212.92245,111.53073 228.60948,146.39118"
       id="path4166"
       inkscape:connector-curvature="0" />
    <path
       style="fill:none;fill-rule:evenodd;stroke:#000000;stroke-width:1.88766479;stroke-linecap:round;stroke-linejoin:miter;stroke-miterlimit:4;stroke-dasharray:none;stroke-opacity:1"
       d="M 108.31303,87.085282 C 102.96435,78.654236 97.0853,67.920585 96.55418,59.555577"
       id="path4168"
       inkscape:connector-curvature="0" />
    <path
       style="fill:none;fill-rule:evenodd;stroke:#000000;stroke-width:1.88766479;stroke-linecap:round;stroke-linejoin:miter;stroke-miterlimit:4;stroke-dasharray:none;stroke-opacity:1"
       d="m 140.39512,84.690242 c 0.59907,-7.73172 2.13029,-17.3471 2.86022,-23.83551"
       id="path4170"
       inkscape:connector-curvature="0" />
    <ellipse
       ry="5.3413496"
       rx="7.2603006"
       cy="-54.825047"
       cx="143.92667"
       id="ellipse4194"
       style="fill:none;stroke:#000000;stroke-width:1.68075442;stroke-linecap:round;stroke-miterlimit:4;stroke-dasharray:none;stroke-opacity:1"
       transform="scale(1,-1)" />
    <ellipse
       style="fill:none;stroke:#000000;stroke-width:1.68075442;stroke-linecap:round;stroke-miterlimit:4;stroke-dasharray:none;stroke-opacity:1"
       id="ellipse4196"
       cx="95.516197"
       cy="-53.35651"
       rx="7.2603006"
       ry="5.3413496"
       transform="scale(1,-1)" />
    <g
       id="g3385"
       transform="matrix(0.99864428,0,0,-1.0414303,-0.17546687,214.96837)">
      <path
         inkscape:connector-curvature="0"
         id="path4204"
         d="m 131.12646,105.12081 c -1.59712,0.66395 -3.43824,0.73035 -5.24583,0.73035 -4.6127,0 -11.29183,-4.33546 -4.993,-7.13497 4.99242,-2.218881 16.86357,2.72417 10.23883,6.40462 z"
         style="fill:#f8aa00;fill-opacity:1;fill-rule:evenodd;stroke:#000000;stroke-width:2.83149719;stroke-linecap:butt;stroke-linejoin:miter;stroke-miterlimit:4;stroke-dasharray:none;stroke-opacity:1" />
      <path
         sodipodi:nodetypes="cc"
         inkscape:connector-curvature="0"
         id="path4206"
         d="m 127.3975,91.46886 c 7.85787,-1.627401 15.05978,7.194116 15.67428,13.2025"
         style="fill:none;fill-rule:evenodd;stroke:#000000;stroke-width:2.83149719;stroke-linecap:round;stroke-linejoin:miter;stroke-miterlimit:4;stroke-dasharray:none;stroke-opacity:1" />
      <path
         sodipodi:nodetypes="cscsc"
         inkscape:connector-curvature="0"
         id="path4210"
         d="m 126.07416,120.63521 c -1.94634,-0.39235 -3.00521,-1.60264 -3.08369,-3.41643 -0.0435,-1.00666 -0.0182,-1.98701 0.17877,-2.97943 0.35523,-1.78936 0.98591,-2.64297 2.72615,-3.41643 5.50342,-2.44599 9.01094,10.52601 0.17877,9.81229 z"
         style="fill:#ffffff;fill-opacity:1;fill-rule:evenodd;stroke:#000000;stroke-width:1.88766479;stroke-linecap:butt;stroke-linejoin:miter;stroke-miterlimit:4;stroke-dasharray:none;stroke-opacity:1" />
      <path
         style="fill:#ffffff;fill-opacity:1;fill-rule:evenodd;stroke:#000000;stroke-width:1.88299215;stroke-linecap:butt;stroke-linejoin:miter;stroke-miterlimit:4;stroke-dasharray:none;stroke-opacity:1"
         d="m 115.71114,107.4085 c 1.95303,0.38907 3.01554,1.58925 3.09429,3.38788 0.0438,0.99825 0.0182,1.97041 -0.17938,2.95455 -0.35646,1.7744 -0.98931,2.62088 -2.73552,3.38787 -5.52236,2.42556 -9.04194,-10.43806 -0.17939,-9.7303 z"
         id="path4232"
         inkscape:connector-curvature="0"
         sodipodi:nodetypes="cscsc" />
      <ellipse
         transform="scale(1,-1)"
         ry="2.191052"
         rx="1.4536624"
         cy="-116.80643"
         cx="124.86938"
         id="path4234"
         style="fill:none;stroke:#000000;stroke-width:2.83149719;stroke-linecap:round;stroke-miterlimit:4;stroke-dasharray:none;stroke-opacity:1" />
      <ellipse
         transform="scale(1,-1)"
         ry="2.0225093"
         rx="1.3904597"
         cy="-110.90742"
         cx="115.83141"
         id="path4236"
         style="fill:none;stroke:#000000;stroke-width:2.83149719;stroke-linecap:round;stroke-miterlimit:4;stroke-dasharray:none;stroke-opacity:1" />
    </g>
    <path
       style="fill:none;fill-rule:evenodd;stroke:#000000;stroke-width:2.83149719;stroke-linecap:butt;stroke-linejoin:miter;stroke-miterlimit:4;stroke-dasharray:none;stroke-opacity:1"
       d="m 231.54122,128.21264 c -0.89105,-6.92922 4.58212,-10.08258 11.01187,-12.68049 22.64816,-9.15088 43.57086,17.41697 24.02592,25.13851"
       id="path4258"
       inkscape:connector-curvature="0" />
    <path
       style="fill:none;fill-rule:evenodd;stroke:#000000;stroke-width:2.83149719;stroke-linecap:butt;stroke-linejoin:miter;stroke-miterlimit:4;stroke-dasharray:none;stroke-opacity:1"
       d="m 242.80336,114.86476 c 2.36845,-18.706096 29.82635,-25.459848 41.29455,-4.89422 4.61156,8.2698 -3.34461,12.0915 -10.0108,15.79499"
       id="path4262"
       inkscape:connector-curvature="0"
       sodipodi:nodetypes="csc" />
    <path
       style="fill:none;fill-rule:evenodd;stroke:#000000;stroke-width:1.88766479;stroke-linecap:butt;stroke-linejoin:miter;stroke-miterlimit:4;stroke-dasharray:none;stroke-opacity:1"
       d="m 286.2437,133.67216 c 0.42024,26.86382 44.48041,0.33568 17.52195,-12.1446"
       id="path4268"
       inkscape:connector-curvature="0"
       sodipodi:nodetypes="cc" />
    <path
       style="fill:none;fill-rule:evenodd;stroke:#000000;stroke-width:1.88766479;stroke-linecap:butt;stroke-linejoin:miter;stroke-miterlimit:4;stroke-dasharray:none;stroke-opacity:1"
       d="m 293.50266,145.19469 c -4.05452,0.32553 -3.98919,2.67819 -2.87748,5.62566 6.13028,16.25314 35.06143,-7.41622 20.71841,-13.02971"
       id="path4270"
       inkscape:connector-curvature="0"
       sodipodi:nodetypes="csc" />
    <path
       style="fill:none;fill-rule:evenodd;stroke:#000000;stroke-width:1.88766479;stroke-linecap:butt;stroke-linejoin:miter;stroke-miterlimit:4;stroke-dasharray:none;stroke-opacity:1"
       d="m 298.28047,156.93911 c 2.48984,15.42173 30.82964,0.7255 14.61518,-7.06561"
       id="path4274"
       inkscape:connector-curvature="0"
       sodipodi:nodetypes="cc" />
    <path
       style="fill:none;fill-rule:evenodd;stroke:#000000;stroke-width:1.88766479;stroke-linecap:round;stroke-linejoin:miter;stroke-miterlimit:4;stroke-dasharray:none;stroke-opacity:1"
       d="m 275.35731,125.57787 c 0.15917,7.03718 7.62762,8.5178 14.59548,8.19652 19.64101,-0.90564 17.76812,-29.79389 -8.72021,-29.79389"
       id="path4276"
       inkscape:connector-curvature="0"
       sodipodi:nodetypes="csc" />
    <path
       style="fill:none;fill-rule:evenodd;stroke:#000000;stroke-width:1.88766479;stroke-linecap:butt;stroke-linejoin:miter;stroke-miterlimit:4;stroke-dasharray:none;stroke-opacity:1"
       d="m 309.87571,164.02945 c 1.23159,8.51361 18.68638,-3.22604 8.75945,-8.00873"
       id="path4278"
       inkscape:connector-curvature="0"
       sodipodi:nodetypes="cc" />
    <path
       style="fill:none;fill-rule:evenodd;stroke:#000000;stroke-width:1.88766479;stroke-linecap:butt;stroke-linejoin:miter;stroke-miterlimit:4;stroke-dasharray:none;stroke-opacity:1"
       d="m 316.38273,166.69903 c 5.36425,5.42071 11.43422,-1.04478 5.50594,-5.56162"
       id="path4280"
       inkscape:connector-curvature="0" />
    <path
       style="fill:none;fill-rule:evenodd;stroke:#000000;stroke-width:3;stroke-linecap:round;stroke-linejoin:miter;stroke-miterlimit:4;stroke-dasharray:none;stroke-opacity:1"
       d="m 174.65538,142.31577 c 0.47061,-4.02375 3.65942,-7.13302 7.07106,-8.83884"
       id="path4195"
       inkscape:connector-curvature="0" />
    <path
       style="fill:none;fill-rule:evenodd;stroke:#000000;stroke-width:3;stroke-linecap:round;stroke-linejoin:miter;stroke-miterlimit:4;stroke-dasharray:none;stroke-opacity:1"
       d="m 142.48202,190.39903 c -0.59732,6.73049 -7.02252,8.45292 -11.31371,11.31371"
       id="path4197"
       inkscape:connector-curvature="0" />
    <path
       style="fill:none;fill-rule:evenodd;stroke:#000000;stroke-width:3;stroke-linecap:round;stroke-linejoin:miter;stroke-miterlimit:4;stroke-dasharray:none;stroke-opacity:1"
       d="m 159.45258,196.40944 c -1.32159,3.93343 -4.09544,7.79789 -7.77817,10.25305"
       id="path4199"
       inkscape:connector-curvature="0" />
    <path
       style="fill:none;fill-rule:evenodd;stroke:#000000;stroke-width:3;stroke-linecap:round;stroke-linejoin:miter;stroke-miterlimit:4;stroke-dasharray:none;stroke-opacity:1"
       d="m 236.52722,185.80284 c 3.86078,0.81797 7.63317,2.95549 8.48528,6.36396"
       id="path4203"
       inkscape:connector-curvature="0" />
    <path
       style="fill:none;fill-rule:evenodd;stroke:#000000;stroke-width:2;stroke-linecap:round;stroke-linejoin:miter;stroke-miterlimit:4;stroke-dasharray:none;stroke-opacity:1"
       d="m 310.41988,125.34521 c 2.19161,-3.26973 5.38786,-4.53472 8.13173,-6.36396"
       id="path4205"
       inkscape:connector-curvature="0" />
    <path
       style="fill:none;fill-rule:evenodd;stroke:#000000;stroke-width:2;stroke-linecap:round;stroke-linejoin:miter;stroke-miterlimit:4;stroke-dasharray:none;stroke-opacity:1"
       d="m 296.6313,108.25332 c 1.95606,-2.95068 5.27756,-3.17554 8.13173,-3.88908"
       id="path4207"
       inkscape:connector-curvature="0" />
    <path
       style="fill:none;fill-rule:evenodd;stroke:#000000;stroke-width:3;stroke-linecap:butt;stroke-linejoin:miter;stroke-miterlimit:4;stroke-dasharray:none;stroke-opacity:1"
       d="m 182.43355,133.12338 c 9.56022,3.93255 9.55751,-9.19239 -0.35355,-9.19239 -2.42284,0 -2.12132,1.77534 -2.12132,3.88909 0,1.43901 1.4797,3.97641 2.47487,5.3033 z"
       id="path4215"
       inkscape:connector-curvature="0" />
    <path
       style="fill:none;fill-rule:evenodd;stroke:#000000;stroke-width:2;stroke-linecap:round;stroke-linejoin:miter;stroke-miterlimit:4;stroke-dasharray:none;stroke-opacity:1"
       d="m 305.11658,103.77845 c -11.09521,-15.639301 12.63496,-8.038771 4.94975,-0.35355 -1.09451,1.0945 -5.27324,0.48294 -6.71752,1.06066"
       id="path4217"
       inkscape:connector-curvature="0" />
    <path
       style="fill:none;fill-rule:evenodd;stroke:#000000;stroke-width:2;stroke-linecap:round;stroke-linejoin:miter;stroke-miterlimit:4;stroke-dasharray:none;stroke-opacity:1"
       d="m 318.19805,118.27414 c -0.27127,-2.55555 -1.76776,-4.05353 -1.76776,-6.71752 0,-0.69638 1.16952,-1.9219 1.76776,-2.12132 8.16576,-2.72191 6.51207,13.29214 0.51777,9.29595"
       id="path4219"
       inkscape:connector-curvature="0"
       sodipodi:nodetypes="cscc" />
    <path
       style="fill:none;fill-rule:evenodd;stroke:#000000;stroke-width:3;stroke-linecap:butt;stroke-linejoin:miter;stroke-miterlimit:4;stroke-dasharray:none;stroke-opacity:1"
       d="m 246,192.6122 c -1.94032,0.79444 -4.657,1.72101 -5.25,3.5 -0.711,2.13299 -2.69364,4.13728 -3.5,5.75 -2.18487,4.36975 14.84038,2.77114 11.75,-6.5 -0.44711,-1.34135 -1.6527,-2.75 -3,-2.75 z"
       id="path4225"
       inkscape:connector-curvature="0" />
    <path
       style="fill:none;fill-rule:evenodd;stroke:#000000;stroke-width:3;stroke-linecap:butt;stroke-linejoin:miter;stroke-miterlimit:4;stroke-dasharray:none;stroke-opacity:1"
       d="m 150.5,207.1122 c -2.17236,-0.74094 -4.22003,-1.43376 -6.75,-1.75 -5.55197,-0.694 -9.32706,3.78196 -4.5,7 3.76066,2.5071 16.079,1.18866 11.25,-5.25 z"
       id="path4231"
       inkscape:connector-curvature="0" />
    <path
       inkscape:connector-curvature="0"
       id="path4233"
       d="m 115.95046,199.62172 c 2.23159,-0.73788 4.33509,-1.42785 6.93405,-1.74278 5.70335,-0.69114 9.58138,3.76636 4.6227,6.97112 -3.8632,2.49676 -16.51742,1.18376 -11.55675,-5.22834 z"
       style="fill:none;fill-rule:evenodd;stroke:#000000;stroke-width:3.03434753;stroke-linecap:butt;stroke-linejoin:miter;stroke-miterlimit:4;stroke-dasharray:none;stroke-opacity:1" />
  </g>
</svg>
